<?xml version="1.0" encoding="utf-8"?>
<!-- Generator: Adobe Illustrator 28.0.0, SVG Export Plug-In . SVG Version: 6.00 Build 0)  -->
<svg version="1.1" id="Capa_1" xmlns="http://www.w3.org/2000/svg" xmlns:xlink="http://www.w3.org/1999/xlink" x="0px" y="0px"
	 viewBox="0 0 100 100" style="enable-background:new 0 0 100 100;" xml:space="preserve">
<style type="text/css">
	.st0{fill:#5E604B;}
</style>
<g>
	<path class="st0" d="M91.66,40.02c0,0.97,0,1.72,0,2.46c0,16.51,0,33.02,0,49.54c0,4.55-1.74,6.3-6.27,6.3
		c-23.59,0-47.18,0-70.77,0c-4.53,0-6.27-1.75-6.27-6.3c0-16.51,0-33.02,0-49.54c0-0.75,0-1.5,0-2.47c-1.19,0-2.21,0.03-3.23-0.01
		C2.1,39.9,0.1,37.9,0.04,34.84c-0.05-2.7-0.06-5.41,0-8.12c0.07-2.93,2.08-4.94,5.01-5.03c2.07-0.06,4.15-0.01,6.75-0.01
		c-4.17-4.28-3.44-9.38-3.44-14.31c0-3.7,1.95-5.67,5.63-5.68c7.77-0.02,15.54-0.01,23.31,0c5.92,0,9.15,3.1,9.39,8.98
		c0.01,0.27,0.06,0.53,0.1,0.9c2.16,0,4.27,0,6.46,0c0.06-0.99,0.04-1.89,0.17-2.76c0.6-4.01,3.94-7.05,8.04-7.09
		c8.39-0.08,16.79-0.05,25.18-0.01c2.57,0.01,4.77,1.78,4.91,4.2c0.19,3.1,0.29,6.28-0.15,9.34c-0.31,2.16-1.6,4.17-2.53,6.43
		c1.74,0,3.7-0.02,5.67,0c3.42,0.05,5.4,2.02,5.44,5.45c0.03,2.36,0.02,4.72,0,7.08c-0.02,3.85-1.92,5.77-5.72,5.81
		C93.51,40.03,92.74,40.02,91.66,40.02z M11.7,40.1c0,0.78,0,1.32,0,1.87c0,16.65,0,33.3,0,49.96c0,2.82,0.24,3.05,3.13,3.05
		c23.45,0,46.9,0,70.36,0c2.88,0,3.12-0.23,3.12-3.06c0-16.58,0-33.17,0-49.75c0-0.67-0.06-1.34-0.1-2.07
		C62.69,40.1,37.32,40.1,11.7,40.1z M65.01,21.65c5.44,0,10.63,0.16,15.8-0.05c4.02-0.17,7.22-3.61,7.45-7.64
		c0.13-2.28,0.04-4.57,0.04-6.86c0-1.36-0.68-2.05-2.04-2.05c-8.25,0-16.5-0.03-24.74,0.03c-2.37,0.02-4.55,1.69-4.68,3.95
		c-0.23,4.18-0.07,8.38-0.07,12.56c1.71,0,3.21,0,4.89,0c0-1.2-0.03-2.29,0.01-3.38c0.14-4.03,2.89-7.6,6.85-7.96
		c4.3-0.38,8.67-0.09,12.98-0.09c0,1.14,0,2.13,0,3.22c-3.89,0-7.63-0.04-11.36,0.01c-3.04,0.05-5.03,2.08-5.13,5.11
		C64.98,19.46,65.01,20.43,65.01,21.65z M34.78,21.61c1.01-5.18-0.87-8.7-6.84-8.28c-3.15,0.22-6.32,0.04-9.49,0.04
		c0-1.23,0-2.18,0-3.25c4.36,0,8.66-0.26,12.91,0.08c3.96,0.32,6.81,3.85,6.99,7.85c0.05,1.16,0.01,2.32,0.01,3.49
		c1.79,0,3.33,0,4.98,0c0-4.02,0.08-7.89-0.03-11.76c-0.08-2.68-2.15-4.69-4.87-4.71C30.25,5,22.07,5.05,13.89,5.04
		c-1.45,0-2.2,0.63-2.19,2.12c0.01,2.22-0.07,4.44,0.03,6.65c0.18,3.96,3.16,7.5,7.12,7.73C24.15,21.84,29.48,21.61,34.78,21.61z
		 M38.25,25.03c-11.05,0-21.87,0.01-32.68-0.01c-1.6,0-2.23,0.78-2.21,2.32c0.04,2.15,0,4.3,0.01,6.45
		c0.01,2.57,0.31,2.88,2.88,2.88c10.12,0.01,20.25,0,30.37,0c0.53,0,1.06-0.08,1.63-0.13C38.25,32.69,38.25,28.97,38.25,25.03z
		 M61.73,36.34c0.21,0.18,0.26,0.27,0.31,0.27c10.89,0.02,21.77,0.05,32.66,0.06c1.4,0,1.96-0.81,1.95-2.14
		c-0.01-2.22,0.01-4.44,0-6.66c-0.01-2.53-0.32-2.83-2.92-2.84c-10.05-0.01-20.11,0-30.16,0c-0.6,0-1.19,0.08-1.83,0.12
		C61.73,29,61.73,32.66,61.73,36.34z M41.79,36.54c5.56,0,10.98,0,16.38,0c0-3.9,0-7.66,0-11.41c-5.53,0-10.91,0-16.38,0
		C41.79,28.94,41.79,32.65,41.79,36.54z M53.23,15.15c-2.29,0-4.34,0-6.41,0c0,2.21,0,4.31,0,6.38c2.23,0,4.33,0,6.41,0
		C53.23,19.33,53.23,17.29,53.23,15.15z"/>
	<path class="st0" d="M49.99,47.14c2.5-2.16,5.18-2.89,8.1-1.27c0.88,0.49,1.71,1.23,2.3,2.04c2.4,3.3,1.74,10.64-1.11,13.51
		c-1.81,1.82-3.61,3.65-5.45,5.44c-2.42,2.35-5.16,2.4-7.54,0.1c-2.14-2.07-4.35-4.11-6.28-6.37c-0.87-1.02-1.34-2.52-1.62-3.88
		c-0.27-1.33-0.03-2.76-0.07-4.15c-0.09-3.05,1.04-5.43,3.81-6.83C44.97,44.31,47.53,45,49.99,47.14z M48.42,53.25
		c-0.03-0.41-0.06-0.74-0.08-1.07c-0.14-2.37-1.36-3.8-3.24-3.82c-1.94-0.02-3.36,1.59-3.41,3.92c-0.03,1.39-0.09,2.78,0.03,4.16
		c0.06,0.7,0.35,1.51,0.82,2.01c1.94,2.07,3.95,4.09,6.03,6.02c0.47,0.43,1.69,0.83,1.96,0.58c2.63-2.43,5.14-5,7.66-7.55
		c0.16-0.16,0.13-0.53,0.14-0.8c0.01-1.66,0.07-3.33-0.02-4.99c-0.11-1.9-1.61-3.34-3.33-3.35c-1.76-0.01-3.1,1.35-3.28,3.35
		c-0.05,0.52-0.11,1.04-0.16,1.54C50.42,53.25,49.47,53.25,48.42,53.25z"/>
	<path class="st0" d="M69.91,78.44c0,1.04,0,1.98,0,3.08c-12.65,0-25.3,0-38.09,0c0-0.98,0-1.97,0-3.08
		C44.5,78.44,57.16,78.44,69.91,78.44z"/>
	<path class="st0" d="M36.76,74.85c0-1.06,0-2.01,0-3.08c8.85,0,17.62,0,26.48,0c0,1.03,0,1.97,0,3.08
		C54.49,74.85,45.72,74.85,36.76,74.85z"/>
	<path class="st0" d="M40.04,88.17c0-1.06,0-1.96,0-3.02c6.57,0,13.12,0,19.82,0c0,0.93,0,1.92,0,3.02
		C53.27,88.17,46.68,88.17,40.04,88.17z"/>
	<path class="st0" d="M30.11,71.74c1.07,0,2.02,0,3.11,0c0,1.03,0,2.02,0,3.14c-1.01,0-2.01,0-3.11,0
		C30.11,73.87,30.11,72.92,30.11,71.74z"/>
	<path class="st0" d="M66.7,74.83c0-1.07,0-1.96,0-3.02c1.03,0,2.02,0,3.17,0c0,0.95,0,1.94,0,3.02
		C68.81,74.83,67.76,74.83,66.7,74.83z"/>
	<path class="st0" d="M25.15,78.42c1.11,0,2.06,0,3.1,0c0,1.04,0,1.99,0,3.09c-0.97,0-1.97,0-3.1,0
		C25.15,80.56,25.15,79.56,25.15,78.42z"/>
	<path class="st0" d="M76.58,78.47c0,1.07,0,2.02,0,3.08c-1.08,0-2.07,0-3.17,0c0-1.03,0-1.98,0-3.08
		C74.41,78.47,75.4,78.47,76.58,78.47z"/>
	<path class="st0" d="M33.42,88.17c0-1.04,0-1.98,0-3.06c1.06,0,2.06,0,3.17,0c0,1,0,1.95,0,3.06
		C35.63,88.17,34.64,88.17,33.42,88.17z"/>
	<path class="st0" d="M66.56,85.1c0.04,0.35,0.1,0.61,0.1,0.87c0.01,0.69,0,1.37,0,2.21c-1.08,0-2.08,0-3.21,0c0-0.98,0-1.97,0-3.08
		C64.44,85.1,65.39,85.1,66.56,85.1z"/>
</g>
</svg>
