<?xml version="1.0" encoding="utf-8"?>
<!-- Generator: Adobe Illustrator 28.0.0, SVG Export Plug-In . SVG Version: 6.00 Build 0)  -->
<svg version="1.1" id="Capa_1" xmlns="http://www.w3.org/2000/svg" xmlns:xlink="http://www.w3.org/1999/xlink" x="0px" y="0px"
	 viewBox="0 0 50 50" style="enable-background:new 0 0 50 50;" xml:space="preserve">
<style type="text/css">
	.st0{fill:#5E604B;}
</style>
<g>
	<path class="st0" d="M1.17,1.95c0.59-0.1,1.06-0.18,1.63-0.27c0.62,3.49,1.23,6.92,1.87,10.48c0.53-0.07,1.01-0.14,1.61-0.22
		C5.66,8.42,5.06,4.98,4.44,1.42c0.51-0.1,0.99-0.2,1.61-0.33c0.63,3.53,1.25,6.99,1.88,10.52c0.56-0.09,1.01-0.16,1.6-0.25
		C8.91,7.83,8.31,4.39,7.69,0.83C8.22,0.73,8.7,0.64,9.3,0.52c0.63,3.54,1.25,7,1.88,10.54c0.54-0.1,1-0.18,1.59-0.29
		c-0.61-3.52-1.21-6.98-1.83-10.52c0.55-0.11,1.01-0.21,1.6-0.33c0.3,1.67,0.58,3.28,0.86,4.89c0.59,3.31,1.2,6.62,1.76,9.94
		c0.48,2.77-0.02,3.83-2.47,5.34c0.71,3.07,1.43,6.18,2.16,9.28c1.26,5.38,2.53,10.75,3.79,16.13c0.54,2.33-0.38,3.72-2.73,4.13
		c-0.64,0.11-1.29,0.24-1.93,0.29c-1.62,0.11-2.91-0.91-3.11-2.51c-0.84-6.92-1.66-13.84-2.49-20.77c-0.23-1.91-0.46-3.81-0.69-5.76
		c-2.54-0.34-3.58-1.93-3.96-4.31C2.96,11.74,2.05,6.92,1.17,1.95z M9.37,20.64c0.04,0.51,0.06,0.88,0.1,1.26
		c0.95,7.94,1.91,15.87,2.84,23.81c0.31,2.66,0.4,2.76,3.05,2.33c1.74-0.28,2-0.69,1.6-2.43c-1.36-5.81-2.72-11.61-4.08-17.42
		c-0.61-2.59-1.23-5.18-1.86-7.84C10.45,20.44,9.95,20.53,9.37,20.64z M4.98,13.85c0.19,1.13,0.35,2.18,0.53,3.21
		c0.27,1.51,1.27,2.26,2.79,2.05c1.19-0.17,2.37-0.38,3.54-0.63c1.14-0.23,1.95-1.17,1.85-2.27c-0.12-1.25-0.41-2.48-0.63-3.79
		C10.35,12.91,7.76,13.37,4.98,13.85z"/>
	<path class="st0" d="M50.89,9.58c-0.35,1.92-0.58,3.87-1.09,5.74c-0.53,1.97-1.69,3.59-3.54,4.63c-0.25,0.14-0.48,0.49-0.52,0.77
		c-0.85,6.92-1.67,13.85-2.5,20.77c-0.23,1.91-0.42,3.82-0.68,5.73c-0.26,1.93-1.54,2.9-3.46,2.68c-0.68-0.08-1.36-0.2-2.03-0.35
		c-1.92-0.42-2.82-1.83-2.37-3.74c1.5-6.45,3.02-12.9,4.53-19.35c0.48-2.07,0.99-4.14,1.45-6.22c0.07-0.33,0.11-0.84-0.08-1.04
		c-2.07-2.19-2.32-4.82-1.89-7.6c0.43-2.74,1.32-5.33,2.9-7.64c0.52-0.76,1.15-1.48,1.85-2.05c2.01-1.64,4.34-1.21,5.72,0.99
		c1.05,1.68,1.32,3.59,1.47,5.52c0.03,0.38,0,0.76,0,1.13C50.73,9.55,50.81,9.57,50.89,9.58z M49.2,9.87
		c-0.27-1.68-0.41-3.08-0.73-4.44c-0.29-1.2-0.72-2.49-2.14-2.77c-1.49-0.3-2.34,0.82-3.08,1.85c-1.91,2.66-2.94,5.68-3.02,8.94
		c-0.03,1.21,0.31,2.55,0.87,3.64c1.03,2.02,3.36,2.42,5.04,0.91c0.81-0.73,1.57-1.72,1.9-2.74C48.63,13.43,48.87,11.51,49.2,9.87z
		 M42.41,20.33c-0.09,0.31-0.16,0.5-0.2,0.69c-1.86,7.95-3.73,15.91-5.59,23.86c-0.65,2.78-0.59,2.85,2.2,3.31
		c1.56,0.25,1.97-0.09,2.15-1.65c0.72-6.11,1.46-12.21,2.19-18.32c0.3-2.52,0.59-5.03,0.89-7.61C43.5,20.52,43.01,20.43,42.41,20.33
		z"/>
	<path class="st0" d="M32.21,27.65c-0.37-0.39-0.69-0.73-1.18-1.24c0.51-0.42,1-0.75,1.39-1.18c1.25-1.35,1.23-3.29,0.01-4.56
		c-1.22-1.26-3.18-1.33-4.57-0.16c-1.93,1.63-1.93,1.63-3.89-0.02c-1.39-1.16-3.36-1.08-4.57,0.19c-1.2,1.26-1.27,3.21-0.03,4.48
		c2.11,2.16,4.31,4.24,6.6,6.47c1.12-1.27,2.2-2.5,3.43-3.9c0.49,0.74,0.77,1.16,0.91,1.36c-1.21,1.34-2.52,2.84-3.9,4.25
		c-0.17,0.18-0.91,0.09-1.14-0.13c-2.42-2.29-4.84-4.59-7.16-6.99c-1.78-1.85-1.68-4.79,0.06-6.65c1.76-1.88,4.7-2.09,6.73-0.47
		c0.34,0.27,0.66,0.58,0.98,0.86c3.46-2.57,6.3-2.55,8.2,0.03C35.86,22.45,35.17,25.4,32.21,27.65z"/>
	<path class="st0" d="M17.33,15.09c-0.31-0.35-0.62-0.71-1.03-1.18c3.77-3.05,7.97-4.17,12.63-3.19c5.26,1.1,8.82,4.32,10.95,9.36
		c-0.56,0.21-1.02,0.38-1.47,0.56C34.96,11.96,24.37,9.4,17.33,15.09z"/>
	<path class="st0" d="M15.57,7.42c-0.26-0.47-0.51-0.91-0.75-1.34C22.1,1.6,32.2,2.22,38.72,7.19c-0.29,0.41-0.58,0.82-0.88,1.24
		C30.63,3.84,23.27,3.47,15.57,7.42z"/>
	<path class="st0" d="M17.24,37.17c0.28-0.38,0.56-0.77,0.86-1.19c6.05,3.67,11.77,3.24,17.15-1.3c0.38,0.34,0.76,0.67,1.14,0.99
		C31.14,41.24,22.17,41.24,17.24,37.17z"/>
	<path class="st0" d="M9.24,37.49c-0.37,0.27-0.63,0.48-0.91,0.68c-0.11,0.08-0.23,0.13-0.44,0.25c-3.5-4.95-4.81-10.37-4.01-16.45
		c0.57,0.06,1.06,0.11,1.63,0.18C4.76,27.76,5.97,32.84,9.24,37.49z"/>
	<path class="st0" d="M45.69,35.61c-0.52-0.27-0.94-0.48-1.45-0.75c2.1-4.26,2.8-8.72,1.94-13.47c0.54-0.11,1.03-0.21,1.6-0.33
		C48.74,26.19,48.01,30.98,45.69,35.61z"/>
	<path class="st0" d="M19.91,46.78c0.17-0.57,0.31-1.02,0.48-1.56c4.28,1.12,8.46,0.96,12.66-0.52c0.19,0.51,0.37,0.97,0.58,1.53
		C29.09,47.86,24.6,48.04,19.91,46.78z"/>
</g>
</svg>
